# xmcd CD database file
#
# Track frame offsets:
#	150
#	50289
#	90523
#	116631
#	131740
#	148769
#	169190
#	187825
#	204520
#	227289
#
# Disc length: 3311 seconds
#
# Revision: 0
# Processed by: cddbd v1.5.2PL0 Copyright (c) Steve Scherf et al.
# Submitted via: CDex 1.70beta2
#
DISCID=800ced0a
DTITLE=Stevie Ray Vaughn - Looking At You
DYEAR=1987
DGENRE=Blues
TTITLE0=I'm Looking At You
TTITLE1=Look At Little Sister
TTITLE2=Pride And Joy
TTITLE3=Change It
TTITLE4=Cold Shot
TTITLE5=Love Struck Baby
TTITLE6=The Warn
TTITLE7=Get High
TTITLE8=Terstify
TTITLE9=Mary Had A Little lammb
EXTD=YEAR: 1987
EXTT0=
EXTT1=
EXTT2=
EXTT3=
EXTT4=
EXTT5=
EXTT6=
EXTT7=
EXTT8=
EXTT9=
PLAYORDER=
